<svg xmlns="http://www.w3.org/2000/svg" id="a" viewBox="0 0 714.68 161.04" width="200px" height="90px"><defs><style>.b{fill:#c72826;}</style></defs><g><path class="b" d="M100.48,161.03c-30.21,0-59.37,.04-88.52-.02-8.05-.02-11.86-4.31-11.87-13.26C.03,111.75,.03,75.76,.02,39.77,.02,30.77-.03,21.77,.04,12.78,.1,4.09,3.93,.05,12.44,.04,62.43-.02,112.41,0,162.4,.03c6.44,0,11.14,4.04,11.45,10.16,.34,6.61,.08,13.24,.08,20.52-22.19-11.49-44.48-13.47-67.27-3.73-16.26,6.95-28.31,18.54-36.56,34.06-15.26,28.69-10.79,75.24,30.38,99.99h0Z"/><path d="M151.81,53.94c-18.2,21.25-36.04,42.09-53.93,62.98-9.83-13.77-8.18-35.59,3.58-49.96,12.38-15.12,33.08-20.63,50.35-13.03h0Z"/><path d="M120.5,136.48c17.71-20.79,35.05-41.16,53.18-62.45,.13,2.6,.28,4.12,.28,5.64,.02,11.99,.04,23.97-.02,35.96,0,1.6-.07,3.45-.83,4.74-9.69,16.4-33.81,23.94-52.61,16.11h0Z"/></g><g><path d="M217.68,104.11h44.08v12.77h-58.4V44.78h57.37v12.77h-43.05v16.48h37.18v12.57h-37.18v17.51Z"/><path d="M330.91,97.99c0,4.46-1.41,8.23-4.23,11.32-2.82,3.08-6.35,5.28-10.58,6.59-4.23,1.31-8.94,1.97-14.12,1.97-9.91,0-17.52-2-22.83-6-5.31-4-8.17-9.48-8.56-16.43h14.46c.59,3.48,2.23,6.1,4.92,7.87,2.69,1.77,6.69,2.66,12,2.66,9.51,0,14.27-2.59,14.27-7.77,0-1.25-.3-2.38-.89-3.39-.59-1.02-1.26-1.82-2.02-2.41-.75-.59-1.87-1.18-3.35-1.77-1.48-.59-2.72-1.02-3.74-1.28-1.02-.26-2.44-.62-4.28-1.08l-9.64-1.87c-13.05-2.95-19.58-9.31-19.58-19.09,0-6.3,2.61-11.25,7.82-14.86,5.22-3.61,12.05-5.41,20.52-5.41s15.48,1.87,20.47,5.61c4.98,3.74,7.67,8.69,8.07,14.86h-14.56c-1.12-5.71-5.77-8.56-13.97-8.56-4.26,0-7.59,.67-9.99,2.02-2.4,1.35-3.59,3.23-3.59,5.66s1.05,4.15,3.15,5.36c2.1,1.21,5.25,2.31,9.45,3.3l9.45,1.67c14.23,3.02,21.35,10.04,21.35,21.06Z"/><path d="M393.59,115.9c2.23,2.3,6,3.44,11.32,3.44,3.02,0,6.23-.36,9.64-1.08v10.04c-3.94,.98-7.91,1.48-11.91,1.48-11.41,0-18.96-3.97-22.63-11.91h-.49c-11.87,0-21.53-3.35-28.98-10.04s-11.17-15.15-11.17-25.39,3.71-18.7,11.12-25.39c7.41-6.69,17.09-10.04,29.03-10.04s21.53,3.35,28.98,10.04c7.44,6.69,11.17,15.15,11.17,25.39,0,7.94-2.35,14.91-7.04,20.91-4.69,6-11.04,10.18-19.04,12.55Zm-39.85-33.46c0,6.63,2.38,12.04,7.13,16.24,4.75,4.2,11,6.3,18.75,6.3s13.87-2.12,18.6-6.35c4.72-4.23,7.08-9.63,7.08-16.19s-2.38-11.96-7.13-16.19c-4.76-4.23-10.97-6.35-18.65-6.35s-13.97,2.12-18.7,6.35c-4.72,4.23-7.08,9.63-7.08,16.19Z"/><path d="M497.6,48v39.85c0,9.91-3.08,17.38-9.25,22.44-6.17,5.05-14.17,7.58-24.01,7.58s-17.99-2.53-24.26-7.58c-6.27-5.05-9.4-12.53-9.4-22.44V48h14.37v39.36c0,5.77,1.77,10.15,5.31,13.14,3.54,2.99,8.23,4.48,14.07,4.48s10.36-1.49,13.78-4.48c3.41-2.98,5.12-7.36,5.12-13.14V48h14.27Z"/><path d="M563.83,116.88l-6.79-16.04h-33.16l-6.79,16.04h-14.96l29.91-68.88h16.83l29.91,68.88h-14.96Zm-35.03-27.55h23.32l-11.22-26.27h-.88l-11.22,26.27Z"/><path d="M648.75,116.88h-14.96l-14.56-26.27h-18.7v26.27h-13.68V48h36.8c7.08,0,12.68,1.89,16.78,5.66,4.1,3.77,6.15,8.74,6.15,14.91,0,4.79-1.23,8.86-3.69,12.2s-5.92,5.77-10.38,7.28l16.24,28.83Zm-48.22-56.97v18.79h21.84c3.15,0,5.62-.89,7.43-2.66,1.8-1.77,2.71-4.03,2.71-6.79s-.89-5.08-2.66-6.79c-1.77-1.71-4.2-2.56-7.28-2.56h-22.04Z"/><path d="M672.56,104.68h42.12v12.2h-55.79V48h54.81v12.2h-41.13v15.74h35.52v12h-35.52v16.73Z"/></g></svg>