  <!--?xml version="1.0" encoding="UTF-8"?--><svg id="a" xmlns="http://www.w3.org/2000/svg" viewBox="0 0 692.9 161.04"><defs><style>.b{fill:#c72826;}.c{fill:#324858;}</style></defs><g><path class="b" d="M100.48,161.03c-30.21,0-59.37,.04-88.52-.02-8.05-.02-11.86-4.31-11.87-13.26C.03,111.75,.03,75.76,.02,39.77c0-9-.05-18,.02-26.99C.1,4.09,3.93,.05,12.44,.04,62.43-.02,112.41,0,162.4,.03c6.44,0,11.14,4.04,11.45,10.16,.34,6.61,.08,13.24,.08,20.52-22.19-11.49-44.48-13.47-67.27-3.73-16.26,6.95-28.31,18.54-36.56,34.06-15.26,28.69-10.79,75.24,30.38,99.99Z"></path><path class="c" d="M151.81,53.94c-18.2,21.25-36.04,42.09-53.93,62.98-9.83-13.77-8.18-35.59,3.58-49.96,12.38-15.12,33.08-20.63,50.35-13.03Z"></path><path class="c" d="M120.5,136.48c17.71-20.79,35.05-41.16,53.18-62.45,.13,2.6,.28,4.12,.28,5.64,.02,11.99,.04,23.97-.02,35.96,0,1.6-.07,3.45-.83,4.74-9.69,16.4-33.81,23.94-52.61,16.11Z"></path></g><g><path class="b" d="M228.25,113.51V41.34h43.33v14.49h-27.73v14.19h25.01v14.14h-25.01v14.85h28.84v14.49h-44.44Z"></path><path class="c" d="M281.8,90.11h15.7c0,3.31,1.17,5.85,3.52,7.64,2.35,1.79,5.23,2.68,8.66,2.68,3.12,0,5.84-.77,8.15-2.31,2.31-1.54,3.47-3.6,3.47-6.18,0-.9-.16-1.72-.48-2.46-.32-.74-.86-1.39-1.61-1.96s-1.48-1.05-2.16-1.46c-.69-.4-1.7-.8-3.04-1.21-1.34-.4-2.44-.71-3.3-.93s-2.14-.53-3.85-.93c-6.04-1.47-10.4-2.86-13.08-4.17-6.37-3.05-9.96-7.73-10.77-14.06-.13-1-.2-2.04-.2-3.11,0-6.85,2.34-12.17,7.02-15.95,4.68-3.78,11.06-5.67,19.15-5.67s14.65,2.06,19.2,6.16c4.55,4.11,6.82,9.79,6.82,17.03h-15.45c0-2.94-1.05-5.18-3.15-6.73-2.1-1.55-4.71-2.33-7.83-2.33-2.79,0-5.18,.59-7.17,1.76-2,1.17-2.99,2.86-2.99,5.07,0,.97,.26,1.86,.78,2.66,.52,.8,1.13,1.46,1.84,1.96,.7,.5,1.76,1.01,3.17,1.53,1.41,.52,2.62,.91,3.65,1.18,1.02,.27,2.51,.64,4.45,1.1,1.64,.4,2.91,.72,3.8,.95,.89,.23,2.14,.6,3.75,1.1,1.61,.5,2.88,.96,3.82,1.38,.94,.42,2.1,.99,3.47,1.71,1.38,.72,2.47,1.44,3.3,2.16,.82,.72,1.71,1.62,2.67,2.69,.96,1.07,1.69,2.19,2.19,3.36,.5,1.17,.93,2.53,1.28,4.07,.35,1.54,.53,3.18,.53,4.92,0,3.8-.72,7.19-2.16,10.18s-3.41,5.42-5.91,7.28c-2.5,1.87-5.38,3.28-8.66,4.23-3.27,.96-6.8,1.44-10.59,1.44-8.39,0-15.15-2.22-20.28-6.67-5.13-4.45-7.7-10.49-7.7-18.14Z"></path><path class="c" d="M348.3,92.31c-1.96-4.67-2.94-9.64-2.94-14.91s.98-10.24,2.94-14.9,4.64-8.65,8.03-11.96c3.39-3.32,7.46-5.94,12.23-7.87,4.76-1.93,9.86-2.89,15.3-2.89s10.47,.96,15.22,2.87c4.75,1.91,8.81,4.53,12.18,7.87,3.37,3.34,6.03,7.33,7.98,11.97,1.95,4.64,2.92,9.61,2.92,14.91s-1,10.46-2.99,15.16c-2,4.7-4.79,8.76-8.38,12.19l14.24,16.51h-15.9l-8.4-9.71c-5.23,2.35-10.85,3.52-16.86,3.52-5.44,0-10.54-.97-15.3-2.9-4.76-1.93-8.84-4.56-12.23-7.88-3.39-3.32-6.06-7.32-8.03-11.98Zm19.4-31.23c-4.36,4.4-6.54,9.84-6.54,16.32s2.18,11.93,6.54,16.35c4.36,4.42,9.75,6.62,16.15,6.62,2.11,0,4.26-.3,6.44-.91l-14.34-16.63h15.9l8.76,10.18c3.82-4.3,5.74-9.5,5.74-15.62,0-6.55-2.15-12.01-6.44-16.37-4.29-4.37-9.65-6.55-16.05-6.55s-11.79,2.2-16.15,6.6Z"></path><path class="c" d="M433.83,86.33V41.34h15.6v44.29c0,4.46,1.32,8.04,3.96,10.72,2.64,2.68,6.06,4.03,10.26,4.03s7.61-1.34,10.23-4.03c2.62-2.68,3.93-6.26,3.93-10.72V41.34h15.6v44.99c0,8.39-2.81,15.27-8.43,20.66-5.62,5.38-12.73,8.08-21.34,8.08s-15.72-2.69-21.36-8.08c-5.64-5.38-8.46-12.27-8.46-20.66Z"></path><path class="c" d="M499.05,113.51l28.28-72.17h14.69l29.19,72.17h-16.91l-5.03-13.64h-28.73l-4.93,13.64h-16.56Zm26.37-27.28h18.92l-9.51-25.82-9.41,25.82Z"></path><path class="c" d="M580.37,113.51V41.34h29.14c7.25,0,13.26,2.26,18.04,6.78,4.78,4.52,7.17,10.24,7.17,17.15,0,4.67-1.17,8.84-3.52,12.52-2.35,3.68-5.55,6.51-9.61,8.49l15.95,27.23h-17.46l-14.09-24.56h-10.01v24.56h-15.6Zm15.6-39.05h12.48c3.22,0,5.77-.86,7.65-2.58,1.88-1.72,2.82-3.96,2.82-6.7s-.94-4.99-2.82-6.73-4.43-2.61-7.65-2.61h-12.48v18.62Z"></path><path class="c" d="M648.46,113.51V41.34h43.33v14.49h-27.73v14.19h25.01v14.14h-25.01v14.85h28.84v14.49h-44.44Z"></path></g></svg>