<?xml version="1.0" encoding="UTF-8"?><svg xmlns="http://www.w3.org/2000/svg" viewBox="0 0 72.71 64.41"><g id="a"/><g id="b"><g id="c"><g><path d="M0,8.91c.51-2.48,2.23-3.95,4.26-5.19C7.58,1.7,11.13,.38,15.03,.05c7.24-.62,14.18,4.64,15.49,11.79,.19,1.02,.29,2.07,.29,3.1,.02,15.21,.01,30.43,.01,45.64,0,2.4-1.39,3.8-3.77,3.81-.78,0-1.56,.01-2.34,0-2.15-.03-3.57-1.43-3.58-3.56-.02-5.04,0-10.08,0-15.12,0-.87,.36-1.31,1.04-1.32,.7,0,1.09,.46,1.09,1.36,0,4.87,0,9.75,0,14.62,0,1.54,.35,1.89,1.87,1.89,.59,0,1.18,0,1.77,0,1.37,0,1.79-.41,1.79-1.77,0-8.19,0-16.37,0-24.56,0-7.05,.02-14.1,0-21.15-.02-5.99-4.05-11.03-9.88-12.34-3.16-.71-6.2-.1-9.18,.99-2.1,.77-4.03,1.85-5.82,3.2-1.12,.85-1.68,1.95-1.67,3.35,0,3.17,0,6.34,0,9.51,0,1.37,.54,2.47,1.64,3.29,3.43,2.56,7.23,4.17,11.53,4.49,1.82,.13,3.58-.17,5.29-.79,.4-.14,.55-.35,.53-.78-.03-.71-.01-1.42,0-2.13,0-.92,.36-1.39,1.04-1.39,.7,0,1.09,.49,1.09,1.44,0,1.63,0,3.27,0,4.9,0,4.02,0,8.05,0,12.07,0,.28,0,.57-.07,.84-.13,.53-.52,.81-1.04,.78-.55-.03-.93-.34-1-.92-.03-.23-.02-.47-.02-.71,0-3.72,0-7.43,0-11.14v-.76c-1.19,.23-2.28,.52-3.4,.65-3.38,.39-6.59-.36-9.67-1.68-1.34-.57-2.62-1.3-3.9-2.02-2.03-1.16-3.65-2.68-4.15-5.09V8.91Z"/><path d="M72.71,20.55c-.51,2.51-2.27,3.98-4.32,5.23-3.32,2.01-6.87,3.35-10.78,3.63-1.77,.13-3.49-.07-5.19-.57-.24-.07-.49-.13-.83-.22v.9c0,6.06,0,12.12,0,18.17,0,.24,0,.47-.01,.71-.04,.61-.36,.96-.97,1.03-.57,.06-1.04-.33-1.13-.94-.04-.23-.02-.47-.02-.71,0-7.98,0-15.95,0-23.93,0-.28,0-.57,.06-.85,.13-.56,.52-.85,1.09-.81,.57,.04,.94,.36,.97,.94,.04,.83,.06,1.66,.01,2.48-.03,.53,.2,.74,.66,.91,3.02,1.12,6.04,.93,9.06,.08,2.76-.78,5.28-2.04,7.57-3.77,1.14-.86,1.71-1.98,1.71-3.41,0-3.15,0-6.29,0-9.44,0-1.4-.54-2.52-1.67-3.35-3.43-2.56-7.24-4.14-11.54-4.48-6.38-.5-12.5,4.48-13.2,10.84-.18,1.64-.11,3.31-.15,4.96-.02,.95,0,1.89,0,2.84,0,.89-.39,1.37-1.09,1.35-.66-.01-1.04-.48-1.04-1.33,0-1.16-.02-2.32,0-3.48,.03-1.51,0-3.03,.14-4.53C42.72,6.21,48.56,.54,55.2,.1c5.9-.4,10.98,1.72,15.53,5.3,1.12,.88,1.61,2.17,1.98,3.51v11.64Z"/><path d="M41.89,43.27c0-5.8,0-11.59,0-17.39,0-.28-.07-.65,.08-.82,.27-.3,.65-.62,1.03-.69,.52-.09,.88,.3,.99,.82,.05,.25,.03,.52,.03,.78,0,11.48,0,22.95,0,34.43,0,1.51,.37,1.87,1.9,1.88,.69,0,1.37,.01,2.06,0,1.02-.03,1.47-.48,1.47-1.5,.01-2.53,0-5.06,0-7.6,0-.28,0-.57,.09-.84,.16-.52,.55-.75,1.09-.71,.54,.05,.85,.36,.93,.9,.02,.12,.02,.24,.02,.35,0,2.67,.02,5.35,0,8.02-.02,2.05-1.44,3.45-3.5,3.49-.9,.02-1.8,.02-2.7,0-2.08-.05-3.49-1.5-3.49-3.59,0-5.84,0-11.69,0-17.53Z"/><path d="M54.98,7.64c-.14,.16-.34,.57-.66,.73-1.27,.63-2.34,1.48-3.23,2.58-.42,.52-1.03,.58-1.51,.22-.48-.37-.58-.97-.17-1.5,1.07-1.42,2.41-2.53,4.06-3.21,.77-.32,1.5,.15,1.51,1.18Z"/><path d="M18.58,6.26c.42,.14,.68,.2,.91,.31,1.48,.7,2.72,1.7,3.72,2.98,.49,.63,.46,1.2-.07,1.62-.52,.41-1.09,.32-1.59-.3-.87-1.06-1.89-1.9-3.15-2.46-.55-.25-.82-.72-.61-1.26,.14-.36,.54-.61,.8-.89Z"/><path d="M8.79,14.46c0,.4,.02,.8,0,1.2-.05,.64-.52,1.07-1.1,1.05-.56-.02-.99-.45-1.01-1.06-.02-.8-.03-1.6,0-2.4,.02-.6,.49-1.04,1.05-1.01,.59,.03,.97,.37,1.05,.95,.05,.42,0,.85,0,1.27h0Z"/><path d="M66.03,14.47c0,.4,.02,.8,0,1.2-.04,.61-.47,1.05-1.03,1.04-.6-.01-1.02-.34-1.06-.92-.06-.87-.06-1.74,0-2.61,.04-.59,.46-.92,1.06-.93,.56-.02,1,.42,1.04,1.03,.03,.4,0,.8,0,1.2Z"/></g></g></g></svg>