<?xml version="1.0" encoding="UTF-8"?><svg xmlns="http://www.w3.org/2000/svg" viewBox="0 0 62.76 62.76"><defs><style>.d{fill:#fff;}</style></defs><g id="a"/><g id="b"><g id="c"><g><path class="d" d="M41.35,62.76H21.29c1.34-.57,1.74-1.6,1.74-3.02-.05-7.68-.02-15.36-.02-23.04,0-1.8-.86-2.65-2.67-2.66-1.79,0-3.59,0-5.38,0-.42,0-.86,.02-1.27,.12-1.48,.38-2.34,1.39-2.74,2.81h-2.9c0-2.5,0-4.95,0-7.4,0-5.9,1.93-11.08,5.81-15.52,.92-1.05,1.98-1.97,2.97-2.96,.48,.41,.84,.71,1.2,1.01,.41,.35,.84,.37,1.29,.09,.21-.13,.4-.28,.61-.41,4.53-2.9,9.46-3.96,14.78-3.12,3.07,.48,5.87,1.64,8.43,3.39,.7,.48,.99,.46,1.63-.07,.33-.27,.65-.54,.96-.8,.08,.04,.13,.05,.15,.07,5.27,4.36,8.26,9.93,8.66,16.78,.17,2.87,.05,5.76,.06,8.64,0,.1-.02,.19-.03,.3h-2.87c-.65-2.04-1.89-2.94-4.01-2.95-1.79,0-3.59,0-5.38,0-1.81,0-2.66,.86-2.67,2.66,0,7.68,.02,15.36-.02,23.04,0,1.42,.39,2.46,1.74,3.02ZM28.38,24.44c-1.15-.84-2.18-1.6-3.22-2.35-.61-.44-1.21-.39-1.55,.11-.33,.48-.18,1.04,.4,1.47,1.18,.87,2.37,1.73,3.55,2.6,.17,.13,.33,.27,.52,.42-.16,.13-.27,.22-.38,.3-1.26,.93-2.54,1.85-3.79,2.79-.5,.37-.59,.95-.27,1.4,.32,.45,.88,.52,1.41,.18,.29-.19,.56-.4,.84-.61,.8-.58,1.59-1.17,2.49-1.82,0,.34,0,.54,0,.73,0,2.94,0,5.88,0,8.82,0,.14,0,.29,0,.43-.03,.49,.08,.98,.56,1.1,.36,.09,.87,0,1.17-.21,2.79-1.95,5.54-3.95,8.31-5.94,1.06-.76,1.06-1.37,0-2.13-2.2-1.59-4.39-3.18-6.59-4.77-.12-.09-.23-.2-.37-.33,2.36-1.71,4.68-3.37,6.99-5.04,1.02-.73,1.01-1.35-.02-2.09-1.27-.92-2.55-1.83-3.82-2.75-1.47-1.06-2.95-2.11-4.42-3.17-.4-.29-.8-.51-1.29-.25-.49,.26-.55,.72-.52,1.21,0,.2,0,.41,0,.61,0,3.04,0,6.08,0,9.28Z"/><path d="M41.35,62.76c-1.35-.57-1.74-1.6-1.74-3.02,.05-7.68,.02-15.36,.02-23.04,0-1.8,.85-2.65,2.67-2.66,1.79,0,3.59,0,5.38,0,2.11,0,3.35,.91,4.01,2.95h2.87c.01-.11,.03-.2,.03-.3,0-2.88,.11-5.77-.06-8.64-.4-6.85-3.39-12.42-8.66-16.78-.03-.02-.07-.03-.15-.07-.31,.26-.63,.53-.96,.8-.64,.53-.93,.55-1.63,.07-2.56-1.75-5.36-2.91-8.43-3.39-5.32-.84-10.24,.22-14.78,3.12-.21,.13-.4,.28-.61,.41-.45,.29-.88,.26-1.29-.09-.36-.3-.72-.6-1.2-1.01-.99,.98-2.05,1.91-2.97,2.96-3.88,4.43-5.82,9.61-5.81,15.52,0,2.45,0,4.9,0,7.4h2.9c.4-1.42,1.26-2.43,2.74-2.81,.41-.11,.85-.12,1.27-.12,1.79-.01,3.59,0,5.38,0,1.81,0,2.67,.86,2.67,2.66,0,7.68-.02,15.36,.02,23.04,0,1.42-.39,2.46-1.74,3.02h-7.34c-.13-.05-.26-.1-.39-.15-1.43-.49-2.32-1.47-2.62-2.96-.06-.31-.06-.64-.09-1.03-.38,0-.74,0-1.11,0-2.2-.03-3.63-1.45-3.66-3.65-.01-.9,0-1.8,0-2.7,0-.98,0-1.95,0-2.91-2.98-.74-4.21-2.96-4.16-5.66,.1-4.68-.03-9.36,.05-14.03,.04-2.03,.2-4.09,.59-6.08,1.22-6.34,4.35-11.65,9.11-15.98C15.83,3.83,20.68,1.42,26.23,.47c1.08-.19,2.17-.31,3.25-.47h3.67c.18,.04,.35,.08,.53,.11,1.09,.15,2.19,.23,3.27,.44,13.87,2.81,23.67,14.76,23.73,28.93,.02,4.94,0,9.89,0,14.83,0,.52-.06,1.07-.21,1.57-.58,1.91-1.93,3.01-3.9,3.46,0,.22,0,.45,0,.67,0,1.78,.03,3.56-.02,5.33-.05,1.78-1.49,3.18-3.27,3.27-.48,.02-.97,0-1.4,0-.06,.1-.08,.11-.08,.13-.01,.16-.02,.32-.04,.49-.08,1.14-.55,2.1-1.49,2.76-.47,.33-1.04,.52-1.57,.77h-7.34Zm-20.31-14.34c0-3.9-.01-7.8,.01-11.7,0-.58-.2-.74-.74-.73-1.81,.02-3.63,0-5.44,.01-1.36,0-2.03,.68-2.03,2.03,0,6.92,0,13.84,0,20.76,0,1.31,.69,2,2,2.01,1.79,0,3.59,0,5.38,0q.82,0,.83-.81c0-3.86,0-7.72,0-11.57Zm20.55-.04c0,3.9,0,7.8-.01,11.7,0,.56,.17,.75,.73,.74,1.79-.03,3.59,0,5.38-.01,1.43,0,2.1-.67,2.1-2.09,0-6.88,0-13.76,0-20.64,0-1.4-.66-2.06-2.05-2.07-1.77,0-3.54,0-5.32,0-.83,0-.83,0-.83,.86,0,3.84,0,7.67,0,11.51ZM18.75,10.16c7.85-5.15,17.85-4.81,25.13,0l3.48-2.96c-10.19-7.55-23.79-6.4-32.05,.03l3.44,2.92ZM6.08,47.24c0-.25,0-.49,0-.72,0-5.64,0-11.28,0-16.91,0-7.38,2.78-13.57,8.07-18.66,.38-.36,.78-.7,1.2-1.08l-1.67-1.42c-.16,.13-.29,.23-.41,.34C7.3,14.14,4.17,20.85,3.93,28.88c-.08,2.69-.02,5.39-.02,8.09,0,2.51,0,5.03,0,7.54,0,1.35,.89,2.47,2.17,2.74ZM47.28,9.86c.3,.26,.56,.48,.82,.72,5.22,4.82,8.22,10.74,8.41,17.88,.16,6.02,.04,12.05,.05,18.08,0,.23,0,.47,0,.72,1.35-.32,2.17-1.43,2.17-2.89,0-4.98,.01-9.97,0-14.95-.01-5.32-1.45-10.23-4.28-14.72-1.49-2.36-3.31-4.44-5.48-6.26l-1.68,1.43ZM10.86,38.98c-.71,0-1.36,0-2,0q-.81,0-.82,.8c0,4.98,0,9.97,0,14.95,0,.2,0,.41,.02,.61,.08,.63,.54,1.19,1.15,1.27,.53,.07,1.08,.01,1.64,.01v-17.64Zm40.93,0v17.65c.21,.01,.39,.03,.57,.03,1.82,.02,2.23-.4,2.23-2.22,0-4.62,0-9.23,0-13.85,0-.37-.01-.74,0-1.1,.01-.35-.11-.52-.49-.52-.75,.02-1.51,0-2.32,0Z"/><path class="d" d="M48.69,62.76c.53-.25,1.1-.44,1.57-.77,.94-.66,1.4-1.62,1.49-2.76,.01-.16,.02-.32,.04-.49,0-.02,.02-.03,.08-.13,.43,0,.91,.02,1.4,0,1.78-.09,3.21-1.49,3.27-3.27,.05-1.78,.02-3.55,.02-5.33,0-.22,0-.44,0-.67,1.97-.45,3.32-1.55,3.9-3.46,.15-.5,.21-1.04,.21-1.57,.02-4.94,.03-9.89,0-14.83-.06-14.17-9.86-26.13-23.73-28.93-1.07-.22-2.18-.3-3.27-.44-.18-.02-.35-.07-.53-.11h29.6V62.76c-4.69,0-9.38,0-14.07,0Z"/><path class="d" d="M29.48,0c-1.08,.15-2.17,.28-3.25,.47-5.55,.95-10.4,3.37-14.55,7.14C6.91,11.94,3.79,17.25,2.57,23.59c-.38,1.99-.55,4.05-.59,6.08-.08,4.68,.05,9.36-.05,14.03-.06,2.7,1.18,4.92,4.16,5.66,0,.96,0,1.94,0,2.91,0,.9,0,1.8,0,2.7,.02,2.2,1.45,3.62,3.66,3.65,.36,0,.72,0,1.11,0,.03,.39,.03,.72,.09,1.03,.3,1.49,1.19,2.47,2.62,2.96,.13,.04,.26,.1,.39,.15H0V0c9.83,0,19.65,0,29.48,0Z"/><path d="M28.38,24.44c0-3.2,0-6.24,0-9.28,0-.2,0-.41,0-.61-.02-.49,.03-.95,.52-1.21,.49-.26,.89-.04,1.29,.25,1.47,1.06,2.95,2.12,4.42,3.17,1.27,.92,2.55,1.83,3.82,2.75,1.03,.74,1.04,1.36,.02,2.09-2.31,1.67-4.63,3.34-6.99,5.04,.15,.13,.25,.24,.37,.33,2.19,1.59,4.39,3.18,6.59,4.77,1.05,.76,1.05,1.37,0,2.13-2.76,1.99-5.52,3.98-8.31,5.94-.3,.21-.82,.3-1.17,.21-.48-.12-.59-.62-.56-1.1,0-.14,0-.29,0-.43,0-2.94,0-5.88,0-8.82,0-.2,0-.4,0-.73-.9,.66-1.69,1.24-2.49,1.82-.28,.2-.55,.42-.84,.61-.52,.35-1.09,.27-1.41-.18-.32-.45-.23-1.03,.27-1.4,1.26-.94,2.53-1.86,3.79-2.79,.11-.08,.22-.17,.38-.3-.19-.16-.35-.3-.52-.42-1.18-.87-2.37-1.73-3.55-2.6-.58-.43-.73-.98-.4-1.47,.34-.5,.94-.55,1.55-.11,1.04,.75,2.07,1.51,3.22,2.35Zm8.16-3.88l-6.15-4.42v8.88l6.15-4.46Zm-6.15,7.79v8.88l6.15-4.42-6.15-4.46Z"/></g></g></g></svg>