<?xml version="1.0" encoding="UTF-8"?><svg xmlns="http://www.w3.org/2000/svg" viewBox="0 0 73.13 73.13"><defs><style>.d{fill:#fff;}</style></defs><g id="a"/><g id="b"><g id="c"><g><path class="d" d="M0,0c24.38,0,48.75,0,73.13,0,0,24.38,0,48.75,0,73.13-24.38,0-48.75,0-73.13,0C0,48.75,0,24.38,0,0ZM58.99,22.62v.97c0,7.74,0,15.49,0,23.23,0,1.12,.35,1.64,1.11,1.64,.76,0,1.08-.48,1.08-1.65,0-10.1,0-20.19,0-30.29,0-1.14,0-2.29-.15-3.41C60,5.33,52.36-.08,44.69,1.51c-6.64,1.38-11.18,6.99-11.19,13.82,0,4.32,.02,8.65,.02,12.97,0,10.93,.02,21.85,0,32.78-.01,6.02-5.51,10.09-11.19,8.34-3.7-1.14-6.04-4.37-6.05-8.39-.01-8.48,0-16.96,0-25.44,0-.85-.43-1.38-1.09-1.39-.67,0-1.09,.5-1.09,1.37,0,8.58-.04,17.15,.01,25.73,.04,7.23,6.8,12.25,13.77,10.31,4.78-1.33,7.88-5.47,7.88-10.61,.01-12.45,0-24.9,0-37.34,0-.27,0-.55,0-1.02,2.94,4.05,6.74,6.22,11.58,6.23,4.86,0,8.68-2.17,11.65-6.26ZM8.55,11.49c-1.72,.66-2.36,1.91-2.33,3.69,.06,3.61,.03,7.22,0,10.83,0,1.1,.39,1.98,1.17,2.72,.78,.73,1.59,1.43,2.35,2.18,.76,.74,1.64,1.08,2.7,1.07,1.78-.02,3.56-.02,5.34,0,1.03,.01,1.9-.34,2.65-1.03,.7-.65,1.38-1.31,2.11-1.92,1.07-.88,1.51-1.99,1.5-3.37-.04-3.47-.01-6.94-.02-10.4,0-.4,0-.81-.06-1.21-.14-1.1-.72-1.92-1.74-2.34-.48-.19-.55-.45-.55-.9,.02-2.68,0-5.37,0-8.05,0-1.19-.32-1.51-1.53-1.51-3.33,0-6.65,0-9.98,0-1.35,0-1.64,.29-1.64,1.62,0,2.87,0,5.74,0,8.62Zm58.39,46.54c0-1.28,0-2.57,0-3.85,0-.05,0-.1,0-.14-.08-2.04-1.36-3.33-3.38-3.35-2.33-.03-4.66-.03-6.98,0-1.99,.03-3.31,1.32-3.35,3.31-.04,2.68-.04,5.37,0,8.05,.02,1.63,.87,2.73,2.44,3.2,.41,.12,.45,.33,.44,.66,0,1.54,0,3.09,0,4.63,0,1.11,.35,1.46,1.44,1.46,1.69,0,3.37,0,5.06,0,1.14,0,1.44-.3,1.45-1.42,0-1.54,0-3.09,0-4.63,0-.31-.02-.56,.41-.69,1.69-.53,2.46-1.59,2.48-3.38,.02-1.28,0-2.57,0-3.85Z"/><path d="M58.99,22.62c-2.96,4.09-6.78,6.27-11.65,6.26-4.84,0-8.64-2.17-11.58-6.23,0,.47,0,.74,0,1.02,0,12.45,0,24.9,0,37.34,0,5.14-3.1,9.28-7.88,10.61-6.97,1.94-13.73-3.08-13.77-10.31-.05-8.58-.01-17.15-.01-25.73,0-.87,.42-1.38,1.09-1.37,.66,0,1.09,.54,1.09,1.39,0,8.48,0,16.96,0,25.44,0,4.02,2.35,7.25,6.05,8.39,5.68,1.75,11.18-2.32,11.19-8.34,.02-10.93,0-21.85,0-32.78,0-4.32-.02-8.65-.02-12.97,0-6.84,4.55-12.44,11.19-13.82,7.67-1.59,15.31,3.82,16.32,11.6,.15,1.12,.15,2.27,.15,3.41,.01,10.1,0,20.19,0,30.29,0,1.17-.32,1.65-1.08,1.65-.75,0-1.11-.52-1.11-1.64,0-7.74,0-15.49,0-23.23v-.97Zm-23.21-7.57c.05,6.56,5.18,11.67,11.69,11.62,6.54-.04,11.61-5.35,11.51-12.04-.1-6.1-5.44-11.22-11.68-11.18-6.38,.05-11.57,5.27-11.52,11.6Z"/><path d="M8.55,11.49c0-2.88,0-5.75,0-8.62,0-1.33,.29-1.62,1.64-1.62,3.33,0,6.65,0,9.98,0,1.21,0,1.53,.32,1.53,1.51,0,2.68,0,5.37,0,8.05,0,.45,.07,.71,.55,.9,1.02,.41,1.6,1.23,1.74,2.34,.05,.4,.06,.8,.06,1.21,0,3.47-.02,6.94,.02,10.4,.02,1.39-.43,2.49-1.5,3.37-.73,.6-1.41,1.27-2.11,1.92-.75,.69-1.61,1.04-2.65,1.03-1.78-.02-3.56-.02-5.34,0-1.06,.01-1.94-.34-2.7-1.07-.77-.74-1.57-1.45-2.35-2.18-.79-.73-1.18-1.62-1.17-2.72,.02-3.61,.05-7.22,0-10.83-.03-1.78,.61-3.03,2.33-3.69Zm13.26,8.94c0-1.85,0-3.71,0-5.56,0-.98-.24-1.23-1.21-1.23-3.63,0-7.27,0-10.9,0-1.02,0-1.27,.24-1.27,1.25,0,3.66-.02,7.32,.03,10.97,0,.46,.27,1.01,.59,1.36,.63,.7,1.34,1.36,2.1,1.92,.42,.32,1,.58,1.52,.6,1.64,.08,3.28,.07,4.91,0,.52-.02,1.1-.27,1.52-.59,.79-.6,1.52-1.29,2.21-2.01,.26-.27,.48-.72,.49-1.1,.05-1.88,.02-3.75,.02-5.63ZM10.81,11.25h8.64V3.48H10.81v7.77Z"/><path d="M66.94,58.04c0,1.28,.01,2.57,0,3.85-.03,1.79-.79,2.85-2.48,3.38-.43,.13-.41,.38-.41,.69,0,1.54,0,3.09,0,4.63,0,1.13-.31,1.42-1.45,1.42-1.69,0-3.37,0-5.06,0-1.09,0-1.43-.35-1.44-1.46,0-1.54,0-3.09,0-4.63,0-.33-.04-.54-.44-.66-1.56-.47-2.41-1.57-2.44-3.2-.04-2.68-.04-5.37,0-8.05,.03-1.99,1.36-3.29,3.35-3.31,2.33-.03,4.66-.03,6.98,0,2.03,.02,3.3,1.31,3.38,3.35,0,.05,0,.09,0,.14,0,1.28,0,2.57,0,3.85Zm-2.22-.02c0-1.28,0-2.57,0-3.85,0-.86-.41-1.27-1.27-1.28-2.23-.01-4.47,0-6.7,0-.91,0-1.3,.4-1.31,1.3,0,2.57,0,5.13,0,7.7,0,.87,.4,1.27,1.26,1.27,2.23,.01,4.47,0,6.7,0,.91,0,1.3-.4,1.31-1.3,0-1.28,0-2.57,0-3.85Zm-2.9,11.78v-4.24h-3.46v4.24h3.46Z"/><path d="M12.11,7.4c0-.38-.02-.76,0-1.14,.05-.6,.4-.95,1-1,.55-.05,1.11,.37,1.14,.94,.05,.85,.05,1.71,0,2.56-.04,.63-.51,.91-1.09,.89-.58-.02-.98-.36-1.05-.96-.04-.42,0-.85,0-1.28h0Z"/><path d="M18.26,7.54c0,.38,.02,.76,0,1.14-.04,.62-.44,.95-1.03,.96-.58,.02-1.06-.29-1.1-.89-.07-.87-.07-1.75,0-2.63,.04-.56,.46-.86,1.04-.87,.55-.01,1.02,.43,1.1,1.01,0,.05,0,.09,0,.14,0,.38,0,.76,0,1.14h0Z"/></g></g></g></svg>