<?xml version="1.0" encoding="UTF-8"?><svg xmlns="http://www.w3.org/2000/svg" viewBox="0 0 49.7 67.56"><g id="a"/><g id="b"><g id="c"><path d="M3.01,55.23c-.66,0-1.19,.01-1.73,0-.89-.03-1.27-.37-1.27-1.25C0,50.86,0,47.74,0,44.62c0-.74,.32-1.2,1.12-1.31,0-1.06,0-2.08,0-3.1,0-.97,.36-1.32,1.32-1.32,1.07,0,2.15,0,3.22,0,.85,0,1.21,.35,1.24,1.19,.02,.88,.02,1.75,0,2.63,0,.37,.06,.58,.47,.77,.3,.14,.61,.62,.61,.95,.04,3.24,.03,6.48,.02,9.72,0,.68-.39,1.03-1.13,1.07-.58,.03-1.16,0-1.92,0,.1,1.7,.01,3.35,.34,4.92,.65,3.09,3.45,5.27,6.69,5.32,4.44,.06,8.89,.05,13.33,0,2.48-.03,4.19-1.77,4.33-4.26-.72-.08-1.44-.1-2.15-.24-3.63-.68-6.39-4.11-6.27-7.76,.1-3.03,2.54-5.4,5.53-5.4,3.02,0,5.44,2.37,5.51,5.49,.04,1.63-.06,3.26-.1,4.9,0,.26,0,.53,0,.88,2.1,.03,3.82-.71,5.22-2.21,1.04-1.1,1.71-2.43,1.76-3.92,.09-2.55,.03-5.11,.03-7.77-.35,0-.69,0-1.02,0-.69,0-1.09-.32-1.19-1.01-.18-1.3-.38-2.6-.59-3.98-.26-.01-.52-.04-.78-.04-2.12,0-4.25,0-6.37,0-2.74-.01-4.36-1.64-4.37-4.38,0-3.7,0-7.41,0-11.11v-.89c-.96,0-1.85,0-2.75,0-2.53,0-3.72-.9-4.49-3.32-.06-.17-.42-.35-.64-.35-1.37-.03-2.73,0-4.1-.02-.71,0-1.12-.39-1.14-.97-.02-.61,.41-1.01,1.14-1.06,.17-.01,.34,0,.51,0,1.12,0,2.25,0,3.37,0,.24,0,.48-.02,.77-.03v-6.11c-.95,0-1.9,0-2.84,0-.63,0-1.27,0-1.9,0-.63-.02-1.03-.36-1.04-.99,0-.64,.38-1.01,1.01-1.02,1.37-.03,2.73-.03,4.1-.01,.5,0,.74-.08,.87-.66,.4-1.81,1.94-2.96,3.91-3.01,1.04-.03,2.09,0,3.23,0,0-.64,0-1.22,0-1.79C24.88,1.64,26.51,0,29.24,0c5.35,0,10.69,0,16.04,0,2.8,0,4.41,1.6,4.41,4.4,0,9.31,0,18.62,0,27.93,0,1.17,0,2.34,0,3.51-.02,2.67-1.62,4.28-4.29,4.3-1.34,.01-1.34,.01-1.51,1.33-.1,.82-.22,1.64-.34,2.46-.15,1.01-.44,1.24-1.44,1.25-.26,0-.52,0-.86,0,0,1.75,.03,3.43,0,5.1-.03,1.31,.03,2.66-.24,3.92-.86,4.04-4.36,6.82-8.51,6.93-.19,0-.39,.02-.6,.03-.19,.66-.36,1.32-.58,1.96-.88,2.61-2.66,4.28-5.46,4.34-5,.1-10.02,.19-15-.09-4.33-.24-7.76-4.27-7.86-8.61-.02-1.14,0-2.28,0-3.52ZM26.93,20.09c0,5.21,0,10.43,0,15.64,0,1.65,.7,2.35,2.36,2.35,5.32,0,10.64,0,15.96,0,1.72,0,2.39-.67,2.39-2.4,0-10.4,0-20.81,0-31.21,0-1.76-.68-2.43-2.43-2.43-5.27,0-10.54,0-15.82,0-1.79,0-2.47,.68-2.47,2.48,0,5.19,0,10.38,0,15.57Zm-2.09-11.88c-.98,0-1.93,0-2.87,0-1.61,.01-2.31,.71-2.32,2.33,0,2.75,0,5.51,0,8.26,0,.44,0,.88,.05,1.31,.11,.83,.7,1.48,1.53,1.53,1.19,.07,2.38,.02,3.61,.02V8.21Zm5.33,50.77c0-2.05,.12-4.14-.04-6.21-.14-1.79-1.87-3.03-3.62-2.89-1.81,.15-3.2,1.64-3.22,3.45-.04,3.5,3.24,6.27,6.88,5.65Zm-24.26-5.83v-7.7H2.11v7.7h3.79Zm32.56-12.97l.44,2.93h2.69l.41-2.93h-3.55Zm-33.64,.8h-1.62v2.33h1.62v-2.33Z"/></g></g></svg>