<?xml version="1.0" encoding="UTF-8"?><svg xmlns="http://www.w3.org/2000/svg" viewBox="0 0 36.27 72.24"><g id="a"/><g id="b"><g id="c"><g><path d="M24.27,0c.51,.39,.67,.91,.64,1.53-.03,.92,0,1.83-.02,2.75-.02,.77-.45,1.23-1.08,1.21-.6-.01-1.01-.46-1.03-1.19-.02-.7,0-1.4,0-2.14H13.54V11.04h9.25c0-.63-.01-1.24,0-1.84,.02-.78,.43-1.24,1.06-1.24,.63,0,1.03,.46,1.05,1.24,.02,.6,0,1.21,0,1.89,.87,0,1.64,0,2.41,0,5.06,.02,8.94,3.88,8.94,8.92,0,9.78,0,19.55,0,29.33,0,3.92-2.17,7.07-5.84,8.47-.4,.15-.52,.34-.52,.75,.02,2.68,.01,5.36,0,8.04,0,2.91-1.49,4.8-4.33,5.54-.07,.02-.12,.06-.19,.1H10.87c-.13-.05-.26-.1-.39-.14-2.44-.59-4.1-2.64-4.12-5.15-.02-2.77-.02-5.55,0-8.32,0-.47-.12-.67-.58-.85C2.28,56.49,.04,53.28,.01,49.55c-.02-2.87,0-5.74,0-8.6,0-.88,.39-1.36,1.08-1.34,.66,.01,1.03,.48,1.03,1.32,0,.89,0,1.77,0,2.8,.19-.17,.29-.25,.38-.34,1.76-1.77,3.89-2.67,6.39-2.67,6.16,0,12.32,0,18.48,0,2.47,0,4.58,.87,6.34,2.61,.11,.11,.22,.21,.44,.43v-.82c0-7.55,0-15.09,0-22.64,0-4.25-2.82-7.08-7.06-7.09-5.95,0-11.89,0-17.84,0-4.29,0-7.12,2.82-7.12,7.1,0,5.08,0,10.16,0,15.23,0,.23,.02,.48-.02,.7-.11,.58-.46,.92-1.07,.91-.57-.01-.91-.35-1.01-.9-.04-.2-.02-.42-.02-.63,0-5.15,0-10.3,0-15.44,0-5.25,3.83-9.08,9.06-9.09,.54,0,1.08-.03,1.62,0,.53,.04,.69-.15,.68-.67-.02-2.94,0-5.88-.02-8.82,0-.65,.1-1.2,.64-1.6h12.27ZM8.47,62.74c1.45-1.13,3.02-1.11,4.6-1.09,1.55,.02,3.1,0,4.66,0,.95,0,1.45,.36,1.46,1.04,0,.69-.5,1.07-1.43,1.07-2.05,0-4.09-.02-6.14,0-1.76,.02-3.14,1.42-3.15,3.14,0,1.73,1.35,3.17,3.1,3.19,4.37,.03,8.75,.03,13.12,0,1.75-.01,3.11-1.46,3.1-3.19-.01-1.69-1.37-3.08-3.08-3.14-.61-.02-1.22,0-1.83,0-.8-.01-1.3-.43-1.28-1.08,.02-.63,.49-1.02,1.26-1.03,1.69-.03,3.39-.11,4.94,1.06,0-.36,0-.56,0-.77,0-3.39,0-6.77,0-10.16,0-2.17-1.29-3.45-3.47-3.46-4.14,0-8.28,0-12.41,0-2.17,0-3.44,1.3-3.44,3.48,0,3.39,0,6.77,0,10.16v.76Zm21.44-7.07c2.23-.61,4.13-3.24,4.23-5.82,.15-3.92-2.83-6.99-6.84-7.01-3.38-.02-6.77,0-10.15,0-2.91,0-5.83-.08-8.74,.05-4.34,.19-7.28,4.49-5.98,8.63,.62,1.98,1.91,3.39,3.93,4.23,0-1.38,0-2.67,0-3.95,0-3.3,2.22-5.55,5.51-5.56,4.18-.01,8.37-.01,12.55,0,3.25,.01,5.49,2.26,5.5,5.5,0,1.31,0,2.62,0,3.95Z"/><path d="M18.18,34.37c-.71-.36-1.41-.57-1.9-1.01-1.3-1.18-2.53-2.46-3.75-3.72-1.1-1.14-1.09-2.71,.03-3.85,1.2-1.23,2.41-2.44,3.64-3.64,1.17-1.14,2.72-1.14,3.9,0,1.23,1.19,2.45,2.41,3.64,3.64,1.14,1.18,1.12,2.73-.03,3.9-1.18,1.21-2.35,2.44-3.6,3.57-.51,.46-1.21,.71-1.92,1.1Zm-.03-11c-.19,.11-.35,.16-.46,.27-1.22,1.21-2.44,2.41-3.62,3.65-.15,.16-.16,.69-.02,.84,1.13,1.22,2.32,2.39,3.5,3.57,.36,.36,.74,.44,1.15,.01,1.13-1.16,2.28-2.3,3.43-3.44,.37-.37,.4-.71,.02-1.09-1.17-1.16-2.32-2.33-3.49-3.48-.14-.14-.34-.23-.51-.34Z"/><path d="M18.14,65.89c1.55,0,3.1,0,4.65,0,.83,0,1.32,.38,1.34,1.02,.02,.67-.48,1.09-1.34,1.09-3.1,0-6.2,0-9.3,0-.84,0-1.31-.38-1.34-1.02-.02-.67,.48-1.09,1.34-1.09,1.55,0,3.1,0,4.65,0Z"/></g></g></g></svg>