<?xml version="1.0" encoding="UTF-8"?><svg xmlns="http://www.w3.org/2000/svg" viewBox="0 0 65.28 65.13"><defs><style>.d{fill:#fff;}</style></defs><g id="a"/><g id="b"><g id="c"><g><path d="M31.53,0h2.11c0,.2,.02,.38,.02,.56,0,1.2,0,2.41,0,3.61,.01,1.43,.89,2.3,2.32,2.3,1.77,0,3.55-.02,5.32,0,2.13,.03,3.78,1.36,4.29,3.41,.59,2.4-1.19,4.96-3.64,5.24-.34,.04-.68,.05-1.02,.05-5.58,0-11.17,0-16.75,0-.91,0-1.68,.26-2.16,1.08-.87,1.47,.17,3.24,1.94,3.26,1.7,.02,3.39-.02,5.09,.02,.58,.01,1.18,.08,1.72,.26,1.78,.61,2.84,2.17,2.89,4.15,.01,.56,.01,1.11,0,1.67,0,.31,.09,.45,.42,.44,.42-.02,.83,.02,1.25-.01,.42-.04,.52,.14,.51,.53-.02,1.11,0,2.22-.02,3.33,0,.39,.12,.49,.5,.49,3.66-.01,7.31,.04,10.97-.02,4.16-.08,7.82,1.23,11.04,3.81,3.12,2.51,5.42,5.63,6.4,9.55,1.27,5.08,.28,9.81-2.71,14.07-2.69,3.84-6.42,6.17-11.02,7.03-4.44,.83-8.54-.11-12.43-2.38-3.94-2.29-7.94-2.31-11.95-.02-1.22,.7-2.51,1.34-3.84,1.79-7.17,2.45-15.29-.26-19.62-6.48C.86,54.41-.21,50.71,.03,46.66c.2-3.47,1.52-6.52,3.66-9.22,2.57-3.25,5.79-5.59,9.85-6.58,1.32-.32,2.71-.43,4.07-.46,3.72-.06,7.43-.03,11.15-.01,.45,0,.57-.14,.56-.58-.03-1.11,0-2.22-.02-3.33,0-.34,.11-.47,.45-.45,.45,.02,.89,0,1.34,0,.28,0,.39-.09,.39-.37-.01-.62,.02-1.23-.01-1.85-.05-1.25-.92-2.1-2.18-2.11-1.76-.02-3.52,0-5.27,0-1.98-.01-3.57-1.11-4.22-2.88-.94-2.56,.75-5.38,3.45-5.75,.38-.05,.77-.07,1.15-.07,5.54,0,11.07,0,16.61-.01,.45,0,.94-.07,1.34-.26,.9-.41,1.33-1.45,1.1-2.41-.22-.96-1.08-1.64-2.14-1.65-1.84-.02-3.67,0-5.51-.01-2.04-.02-3.67-1.31-4.19-3.28-.08-.31-.13-.64-.13-.96-.02-1.39,0-2.78,0-4.16,0-.07,.02-.15,.04-.25Zm1.09,32.55c-5.03,0-10.05-.03-15.08,.02-1.25,.01-2.53,.16-3.74,.47-2.93,.75-5.36,2.4-7.4,4.6-4,4.33-5.34,9.34-3.39,14.96,2.02,5.82,6.25,9.23,12.33,10.19,3.64,.57,7.01-.32,10.18-2.2,4.72-2.79,9.5-2.69,14.22,.01,1.91,1.09,3.89,1.96,6.08,2.2,5.85,.65,10.66-1.33,14.24-6.01,2.67-3.5,3.54-7.52,2.73-11.85-.46-2.47-1.65-4.64-3.28-6.54-3.22-3.76-7.18-5.95-12.28-5.87-4.87,.08-9.75,.02-14.62,.02Zm1.04-3.25q0-1.09-1.05-1.09t-1.12,1.1,1.07,1.07,1.1-1.08Z"/><path class="d" d="M33.67,29.3q0,1.08-1.1,1.08t-1.07-1.07,1.12-1.1,1.05,1.09Z"/><path d="M20.63,51.03c0,.2,0,.36,0,.53,0,1.22,0,2.44,0,3.65,0,.76-.4,1.21-1.14,1.22-1.4,.02-2.81,.02-4.21,0-.75-.01-1.15-.46-1.15-1.22,0-1.25-.01-2.5,0-3.75,0-.36-.09-.48-.46-.48-1.22,.02-2.44,.01-3.65,0-.93,0-1.32-.39-1.33-1.33,0-1.3,0-2.59,0-3.89,0-.9,.4-1.29,1.31-1.29,1.19,0,2.37,0,3.56,0,.17,0,.33,0,.54,0,0-.21,.02-.37,.02-.54,0-1.22,0-2.44,0-3.65,0-.83,.43-1.25,1.26-1.25,1.33,0,2.65,0,3.98,0,.85,0,1.26,.42,1.26,1.29,0,1.33,0,2.65,.01,3.98,0,.03,.02,.06,.04,.14,.14,0,.3,.03,.47,.03,1.23,0,2.47,0,3.7,0,.77,0,1.21,.43,1.22,1.2,.01,1.36,0,2.71,0,4.07,0,.8-.43,1.23-1.23,1.24-1.22,0-2.44,0-3.65,0-.17,0-.33,.01-.56,.02Zm-4.34,3.25c.58,0,1.09-.03,1.6,0,.44,.03,.59-.1,.58-.56-.03-1.2-.01-2.4,0-3.61,0-.87,.42-1.28,1.27-1.28,1.25,0,2.5-.01,3.75,0,.32,0,.44-.1,.42-.42-.02-.45-.02-.89,0-1.34,.02-.33-.12-.42-.43-.41-1.22,.01-2.44,0-3.65,0-.95,0-1.35-.41-1.36-1.35,0-1.2-.02-2.41,0-3.61,0-.39-.13-.51-.5-.49-.4,.03-.8,.03-1.2,0-.36-.02-.48,.09-.48,.46,.02,1.19,0,2.37,0,3.56,0,1.04-.38,1.42-1.42,1.42-1.19,0-2.37,0-3.56,0-.15,0-.42,.12-.43,.19-.03,.64-.02,1.28-.02,1.96,1.25,0,2.44,.04,3.62,0,1.49-.06,1.87,.36,1.82,1.82-.05,1.18,0,2.37,0,3.63Z"/><path d="M35.85,47.76c.02-2.46,1.86-4.31,4.45-4.34,2.37-.03,4.32,1.96,4.32,4.33,0,2.4-1.96,4.35-4.36,4.35-2.47,0-4.41-1.91-4.41-4.34Zm2.18,0c-.07,.95,1.08,2.21,2.27,2.16,1.19-.05,2.14-.98,2.15-2.16,0-1.19-.98-2.15-2.18-2.18-1.17-.03-2.33,1.21-2.25,2.18Z"/><path d="M47.85,49.93c2.41-.01,4.36,1.93,4.36,4.34,0,2.38-1.94,4.33-4.32,4.35-2.38,.01-4.38-1.97-4.37-4.35,0-2.38,1.94-4.32,4.33-4.33Zm0,2.18c-1.21,.01-2.17,.99-2.15,2.19,.02,1.18,.98,2.13,2.16,2.14,1.2,0,2.17-.97,2.17-2.17,0-1.21-.97-2.16-2.18-2.15Z"/><path d="M59.8,47.76c0,2.4-1.93,4.33-4.32,4.33-2.4,0-4.36-1.95-4.36-4.35,0-2.37,1.96-4.33,4.33-4.34,2.4,0,4.35,1.95,4.34,4.36Zm-2.17,.04c.02-1.21-.91-2.19-2.12-2.22-1.19-.03-2.2,.94-2.21,2.13-.02,1.2,.94,2.18,2.15,2.19,1.18,.02,2.16-.92,2.18-2.11Z"/><path d="M47.9,45.57c-2.4,.02-4.37-1.94-4.37-4.33,0-2.37,1.95-4.34,4.32-4.35,2.4,0,4.37,1.94,4.37,4.34,0,2.39-1.92,4.32-4.32,4.34Zm0-2.18c1.21,0,2.17-.98,2.15-2.18-.02-1.19-.98-2.14-2.15-2.15-1.19,0-2.17,.98-2.17,2.18,0,1.2,.97,2.16,2.18,2.15Z"/></g></g></g></svg>