<?xml version="1.0" encoding="UTF-8"?><svg xmlns="http://www.w3.org/2000/svg" viewBox="0 0 64.54 73.13"><defs><style>.d{fill:#fff;}</style></defs><g id="a"/><g id="b"><g id="c"><g><path d="M18.13,47.44c-2.48-.83-3.51-2.26-3.51-4.8,0-2.65-.02-5.29,.02-7.94,0-.35,.23-.82,.51-1,.55-.36,1.18,.12,1.21,.87,.03,.85,0,1.7,0,2.61h5.23c.01-.22,.04-.46,.04-.69,0-8.16,.01-16.32,0-24.47,0-4.93-3.27-9.04-7.99-10.04-2.88-.62-5.54,0-7.93,1.73-.23,.16-.41,.54-.41,.82-.02,4.83-.03,9.66,0,14.49,0,.3,.21,.7,.46,.87,2.58,1.84,5.42,2.38,8.5,1.57,1.5-.4,2.11,.05,2.11,1.59,0,1.8,.01,3.59,0,5.39,0,.78-.52,1.21-1.15,1-.51-.17-.6-.57-.6-1.04,0-1.7,0-3.39,0-5.15-.62,.09-1.19,.18-1.75,.24-3.03,.33-5.76-.46-8.24-2.21-.28-.2-.64-.35-.98-.41-1.97-.36-3.55-1.95-3.59-3.93-.08-3.42-.08-6.85,0-10.27,.04-1.94,1.53-3.49,3.43-3.93,.45-.1,.92-.3,1.3-.57,7.22-5.09,17.29-.71,18.46,8.04,.1,.74,.13,1.5,.13,2.25,0,10.2,0,20.39,0,30.59,0,2.27-.93,3.54-3.09,4.25-.11,.04-.23,.07-.29,.08,0,1.82-.19,3.63,.05,5.39,.34,2.5,2.59,4.28,5.13,4.32,2.28,.04,4.56,0,6.85,.01,4.25,.01,7.36,3.1,7.39,7.34,.01,2.5,0,5,0,7.5,0,.77-.31,1.18-.87,1.18-.56,0-.87-.41-.87-1.19,0-2.43,0-4.86,0-7.28,0-3.51-2.28-5.8-5.78-5.8-2.06,0-4.13,0-6.19,0-4.48,0-7.55-3.07-7.56-7.53,0-1.28,0-2.57,0-3.88Zm3.5-8.4h-5.25c0,1.48-.05,2.91,.01,4.34,.05,1.17,1.07,2.17,2.24,2.35,1.25,.19,2.94-.76,2.98-1.77,.06-1.62,.02-3.24,.02-4.92ZM3.51,4.66c-1.11,.27-1.73,1.18-1.74,2.56-.02,2.23,0,4.46,0,6.69,0,.97-.02,1.94,.04,2.91,.07,1.08,.78,1.9,1.71,2.06V4.66Z"/><path d="M46.41,59.77c0,3.79,0,7.55,0,11.31,0,.29,.09,.64-.03,.86-.18,.31-.49,.67-.8,.76-.49,.13-.81-.24-.9-.73-.04-.21-.02-.44-.02-.65,0-3.59-.01-7.19,.01-10.78,0-.55-.09-.83-.69-1.02-1.92-.63-2.82-1.97-2.82-3.99,0-2.11,0-4.22,0-6.34,0-.91,.28-1.32,.87-1.32,.57,0,.84,.4,.87,1.26,0,.12,.02,.23,.03,.38h5.24v-.81c0-4.42,0-8.84,0-13.26,0-1.64,.54-2.05,2.11-1.66,3.04,.76,5.86,.27,8.46-1.51,.38-.26,.52-.55,.52-1.02-.02-4.71-.02-9.42,0-14.13,0-.61-.18-.97-.68-1.31-6-4.13-14.45-.49-15.54,6.72-.1,.69-.15,1.4-.15,2.1-.01,5.88,0,11.75,0,17.63,0,.24,.02,.49-.02,.73-.09,.49-.42,.86-.9,.72-.32-.09-.57-.48-.81-.76-.07-.09-.02-.28-.02-.43,0-6.12-.02-12.24,0-18.36,.02-5.55,3.81-10.32,9.2-11.55,3.42-.78,6.59-.08,9.48,1.92,.32,.22,.72,.39,1.1,.47,1.94,.38,3.5,2,3.54,3.99,.07,3.4,.08,6.8,0,10.2-.05,2.04-1.63,3.64-3.7,4-.25,.04-.53,.12-.73,.26-2.95,2.16-6.21,2.87-9.78,2.11-.09-.02-.19,0-.36,0v.88c0,5.95-.06,11.9,.03,17.85,.04,2.69-.79,4.65-3.54,5.47Zm-3.51-8.45c0,1.67,0,3.27,0,4.86,0,.2,.07,.45,.19,.61,.69,.91,1.61,1.39,2.77,1.24,1.15-.15,2.04-.84,2.16-1.95,.18-1.56,.04-3.16,.04-4.76h-5.18Zm18.13-20.05c1.19-.41,1.74-1.27,1.75-2.69,.01-2.64,0-5.28,0-7.92,0-.58,.01-1.17-.05-1.74-.11-.97-.8-1.73-1.69-1.94v14.29Z"/><path d="M19.64,11.33c.04,.83-.24,1.27-.84,1.25-.69-.02-.87-.5-.9-1.09-.08-1.76-.76-3.24-2.06-4.41-.39-.35-.85-.63-1.3-.92-.61-.38-.82-.83-.52-1.3,.37-.58,.86-.5,1.39-.22,2.45,1.26,4.1,3.86,4.23,6.69Z"/><path d="M44.89,23.64c.25-2.93,1.6-5.17,4.19-6.64,.69-.39,1.17-.32,1.46,.18,.28,.49,.08,.94-.59,1.33-2,1.14-3.11,2.85-3.29,5.15,0,.02,0,.05,0,.07-.08,.84-.4,1.22-.98,1.17-.55-.05-.8-.47-.78-1.27Z"/><path d="M46.63,27.56c-.01,.19,.05,.47-.06,.6-.24,.28-.56,.64-.86,.66-.25,.02-.66-.36-.77-.65-.14-.36-.07-.81-.04-1.21,.05-.51,.39-.85,.87-.73,.32,.08,.59,.45,.81,.74,.1,.12,.03,.37,.04,.59Z"/><path d="M17.93,15.23c0-.17-.01-.34,0-.51,.05-.54,.34-.87,.88-.86,.5,0,.8,.32,.84,.83,.03,.34,.03,.68,0,1.01-.04,.54-.34,.87-.88,.86-.53-.01-.81-.37-.85-.9,0-.14,0-.29,0-.43h0Z"/><path class="d" d="M3.51,4.66v14.22c-.93-.17-1.64-.99-1.71-2.06-.06-.97-.04-1.94-.04-2.91,0-2.23-.01-4.46,0-6.69,.01-1.37,.63-2.29,1.74-2.56Z"/><path class="d" d="M61.03,31.26v-14.29c.9,.21,1.58,.97,1.69,1.94,.07,.58,.05,1.16,.05,1.74,0,2.64,.01,5.28,0,7.92,0,1.42-.56,2.27-1.75,2.69Z"/></g></g></g></svg>