<?xml version="1.0" encoding="UTF-8"?><svg xmlns="http://www.w3.org/2000/svg" viewBox="0 0 48.83 66.66"><g id="a"/><g id="b"><g id="c"><g><path d="M40.82,0c.22,.08,.44,.16,.66,.23,1.92,.6,3.29,2.25,3.39,4.25,.08,1.73,.04,3.47,.05,5.21,0,2.71,0,5.42,0,8.14v.87c.38,0,.7-.01,1.01,0,1.61,.06,2.76,1.17,2.88,2.79,.01,.15,.01,.3,.01,.46,0,7.59,0,15.19,0,22.78,0,1.72-.92,2.96-2.37,3.19-.47,.08-.95,.08-1.53,.12,0,.27,0,.54,0,.81,0,4.21,0,8.42,0,12.63,0,2.48-1.32,4.35-3.51,4.97-.53,.15-1.11,.21-1.67,.21-10.22,.01-20.44,.01-30.66,0-3.08,0-5.15-2.03-5.17-5.12-.02-4.23,0-8.46,0-12.69,0-.26,0-.51,0-.81-.47-.03-.88-.04-1.28-.09-1.42-.15-2.47-1.21-2.6-2.64-.02-.22-.03-.43-.03-.65C0,37.1,0,29.55,0,22c0-.41,.02-.83,.13-1.22,.32-1.17,1.34-1.98,2.56-2.07,.36-.03,.73,0,1.17,0,.02-.32,.04-.57,.04-.82,0-3.97,.08-7.94-.02-11.91-.07-2.77,.81-5.06,4.13-5.97H40.82ZM5.9,18.65c.18,.02,.29,.04,.39,.04,2.51,.09,3.48,1.08,3.48,3.57,0,6.08,0,12.15,0,18.23,0,.28,0,.57-.04,.84-.09,.49-.42,.75-.91,.76-.52,0-.87-.26-.96-.79-.04-.25-.04-.52-.04-.78,0-6.16,0-12.32,0-18.49,0-1.13-.26-1.39-1.37-1.4-1.11,0-2.21,0-3.32,0-.83,0-1.16,.32-1.16,1.14,0,7.68,0,15.36,0,23.04,0,.85,.33,1.18,1.19,1.19,1.15,.02,2.3,.02,3.45,0,.81-.01,1.04-.22,1.22-1.05,.14-.64,.51-.94,1.08-.88,.55,.06,.87,.48,.85,1.11-.05,1.37-1.13,2.56-2.51,2.72-.44,.05-.89,.07-1.32,.1v8.82H42.93v-8.87c-.27,0-.51,.03-.74,0-.49-.08-1.01-.11-1.45-.31-1.24-.58-1.69-1.64-1.69-2.97,.01-6.62,0-13.24,0-19.85,0-1.02-.01-2.04,0-3.06,.03-1.9,1.21-3.06,3.11-3.09,.25,0,.5-.03,.75-.04V9.8H5.9v8.85Zm-.03,40.23c0,.86,0,1.68,0,2.5,0,2.18,1.15,3.32,3.34,3.32,10.15,0,20.3,0,30.45,0,.2,0,.39,0,.59,0,1.29-.08,2.51-1.04,2.64-2.29,.12-1.15,.03-2.32,.03-3.52H5.86ZM42.97,7.78c0-.91,0-1.78,0-2.64-.02-2.01-1.21-3.18-3.21-3.18-10.21,0-20.43,0-30.64,0-.17,0-.35,0-.52,0-1.26,.08-2.48,1.01-2.62,2.24-.14,1.17-.03,2.36-.03,3.58H42.97Zm-1.95,25.57c0,3.79,0,7.59,0,11.38,0,.98,.31,1.29,1.29,1.3,1.06,.01,2.13,0,3.19,0,1.1,0,1.38-.29,1.38-1.4,0-2.49,0-4.99,0-7.48,0-5.05,0-10.1,0-15.15,0-1.08-.28-1.34-1.35-1.35-1.02,0-2.04,0-3.06,0-1.2,0-1.44,.24-1.44,1.45,0,3.75,0,7.5,0,11.25Z"/><path d="M24.48,3.91c.61,0,1.21-.01,1.82,0,.65,.02,1.05,.42,1.04,1-.02,.55-.41,.93-1.03,.94-1.25,.02-2.51,.02-3.76,0-.65,0-1.05-.42-1.03-1,.01-.55,.41-.93,1.03-.94,.65-.02,1.3,0,1.95,0Z"/><path d="M19.52,4.89c0,.52-.42,.95-.94,.96-.54,.01-.99-.43-.98-.98,0-.52,.42-.95,.94-.96,.54-.01,.99,.43,.98,.98Z"/><path d="M31.24,4.87c0,.55-.44,.99-.98,.98-.52-.01-.93-.44-.94-.96,0-.55,.44-.99,.98-.98,.52,.01,.93,.44,.94,.96Z"/></g></g></g></svg>