<?xml version="1.0" encoding="UTF-8"?><svg xmlns="http://www.w3.org/2000/svg" viewBox="0 0 44.64 68"><g id="a"/><g id="b"><g id="c"><g><path d="M31.48,68c-.45-.11-.89-.21-1.34-.34-3.77-1.1-6.25-4.32-6.43-8.33,0-.22,0-.44,0-.75-.73,0-1.41,0-2.08,0-.9,0-1.24-.34-1.24-1.25-.01-1.77,0-3.54,0-5.39h-.82c-5.39,0-10.78,0-16.17,0-2.19,0-3.37-1.17-3.37-3.35,0-10.95,0-21.91,0-32.86,0-.2,0-.4,.02-.6,.08-.47,.37-.75,.84-.8,.5-.05,.88,.15,1.03,.64,.09,.29,.09,.61,.09,.92,0,10.82,0,21.64,0,32.47,0,1.37,.22,1.59,1.56,1.59,8.81,0,17.63,0,26.44,0,1.2,0,1.46-.27,1.46-1.49,0-3.98,0-7.97,0-11.95,0-.22-.02-.45,.03-.66,.13-.54,.47-.85,1.04-.81,.53,.04,.84,.35,.91,.88,.03,.2,.01,.4,.01,.6,0,4.01,0,8.01,0,12.02,0,2.23-1.16,3.41-3.37,3.41-.33,0-.65,0-1.07,0,0,.62,0,1.19,0,1.76,0,1.24,.01,2.48,0,3.72-.01,.82-.36,1.16-1.18,1.17-.68,0-1.36,0-2.1,0-.12,1.7,.28,3.2,1.24,4.54,1.75,2.44,4.81,3.46,7.63,2.56,2.93-.94,4.77-3.54,4.77-6.84,.01-7.99,0-15.98,0-23.97,0-3.39,0-6.77,0-10.16v-.69c-.09-.06-.12-.1-.16-.1-1.42-.11-1.54-.24-1.54-1.7,0-.95,0-1.9-.02-2.85,0-.04-.03-.08-.07-.16-.13-.02-.27-.04-.42-.05-.75-.07-1.06-.39-1.06-1.15,0-1.88,0-3.76,0-5.64,0-1.48,0-2.97,0-4.45,0-1.06,.17-1.27,1.23-1.51,0-.91,0-1.83,0-2.76,0-.98,.33-1.31,1.32-1.32,1.17,0,2.34-.01,3.51,0,.89,.01,1.23,.36,1.23,1.26,0,.93,0,1.86,0,2.77,1.18,.39,1.23,.46,1.23,1.69,0,3.14,0,6.29,0,9.43,0,1.44-.09,1.54-1.57,1.75,0,.81,0,1.65,0,2.48,0,.35,.01,.71,0,1.06-.03,.75-.37,1.08-1.1,1.12-.17,0-.34,0-.58,0v.91c0,11.35,0,22.71,0,34.06,0,4.06-2.32,7.4-6,8.65-.58,.2-1.18,.32-1.78,.48h-2.12Zm11.16-50.87V8.53h-4.54c0,2.76,0,5.47,0,8.18,0,.13,.02,.25,.03,.42h4.51ZM22.46,51.96v4.59h4.52v-4.59h-4.52ZM39.38,4.38v2.06h1.98v-2.06h-1.98Zm1.63,17.51v-2.67h-1.28v2.67h1.28Z"/><path d="M31.09,0c1.78,.6,2.43,1.85,2.42,3.71-.05,9.25-.02,18.5-.02,27.75,0,1.08-.31,1.55-1.01,1.53-.67-.01-.98-.48-.98-1.51,0-9.34,0-18.68,0-28.01,0-1.2-.28-1.47-1.49-1.47-8.83,0-17.67,0-26.5,0-1.21,0-1.47,.26-1.47,1.48,0,2.43,0,4.87,0,7.3,0,.2,.01,.4-.02,.6-.08,.57-.51,.95-1.03,.92-.53-.02-.91-.41-.93-1.01-.02-.62,0-1.24,0-1.86,0-1.84,.08-3.68-.02-5.51C-.09,2.05,.51,.69,2.32,0H31.09Z"/><path d="M16.69,32.62c-5.71-.06-10.3-4.72-10.25-10.42,.04-5.68,4.74-10.29,10.44-10.23,5.64,.05,10.27,4.79,10.19,10.42-.08,5.7-4.74,10.29-10.37,10.23Zm.15-2c4.61-.09,8.3-3.86,8.23-8.4-.07-4.65-3.88-8.35-8.5-8.26-4.54,.09-8.22,3.95-8.13,8.5,.09,4.53,3.92,8.25,8.4,8.16Z"/><path d="M9.53,44.86c-.4,0-.8,.03-1.19,0-.56-.05-.96-.5-.95-1.01,0-.52,.41-.94,.98-.96,.77-.02,1.55-.03,2.32,0,.57,.02,.89,.35,.93,.92,.03,.58-.29,.94-.83,1.02-.41,.06-.84,.01-1.25,.01h0Z"/><path d="M16.8,42.88c.38,0,.75-.02,1.13,0,.57,.03,.9,.37,.94,.92,.04,.53-.25,.96-.77,1-.9,.07-1.81,.07-2.7,0-.51-.04-.79-.48-.74-1.02,.04-.53,.36-.85,.89-.89,.42-.03,.84,0,1.26,0h0Z"/><path d="M23.99,42.88c.4,0,.79-.02,1.19,0,.57,.04,.89,.38,.92,.94,.02,.57-.3,.97-.84,1.01-.83,.06-1.68,.06-2.51,0-.54-.04-.86-.43-.86-1,0-.54,.38-.92,.98-.95,.37-.02,.75,0,1.12,0h0Z"/><path d="M16.69,23.27c-.67,0-1.18,.02-1.68,0-.82-.04-1.26-.81-.83-1.51,.91-1.49,1.85-2.96,2.8-4.42,.34-.53,.9-.63,1.38-.32,.47,.3,.6,.84,.27,1.4-.55,.93-1.14,1.83-1.8,2.88,.55,0,1,0,1.45,0,1.07,.02,1.51,.81,.95,1.71-.85,1.37-1.72,2.73-2.59,4.09-.44,.68-.95,.84-1.49,.5-.53-.34-.61-.89-.19-1.56,.55-.88,1.1-1.75,1.74-2.75Z"/></g></g></g></svg>