<?xml version="1.0" encoding="UTF-8"?><svg xmlns="http://www.w3.org/2000/svg" viewBox="0 0 37.88 71"><g id="a"/><g id="b"><g id="c"><g><path d="M3.96,71c-.47-.18-.96-.32-1.4-.55-1.47-.78-2.32-2.01-2.51-3.67-.03-.3-.05-.6-.05-.9C0,47.21,0,28.54,0,9.87c0-2.51,1.26-4.37,3.43-4.94,.77-.2,1.59-.2,2.48-.3,0-.27,0-.58,0-.9,.02-1.81,.94-3.06,2.66-3.61C8.66,.1,8.74,.04,8.82,0h1.39c3.45,1.44,7.02,2.53,10.67,3.31,4.05,.87,8.15,1.34,12.29,1.42,2.57,.05,4.48,1.89,4.68,4.46,.02,.21,.03,.42,.03,.62,0,18.69,0,37.38,0,56.06,0,1.99-.73,3.55-2.5,4.54-.45,.25-.97,.39-1.46,.58H3.96ZM8.28,7.65v.79c0,15.87,0,31.75,0,47.62,0,.98,.19,1.24,1.09,1.62,3.91,1.62,7.94,2.86,12.09,3.7,3.79,.77,7.61,1.23,11.48,1.31,1.24,.03,2.21-.63,2.47-1.7,.1-.4,.1-.83,.1-1.24,0-16.57,0-33.14,0-49.7,0-.21,0-.42,0-.62-.08-1.39-1.02-2.31-2.42-2.34-.81-.02-1.62-.04-2.42,.02-.32,.02-.7,.19-.93,.42-.79,.78-1.56,1.58-2.28,2.42-1.15,1.33-2.58,1.92-4.34,1.89-2.77-.05-5.55-.05-8.32,0-1.76,.03-3.19-.56-4.34-1.89-.64-.74-1.34-1.43-2.16-2.29Zm-2.36-.49c-2.35-.3-3.54,.6-3.54,2.62,0,16.75,0,33.5,0,50.26,0,1.78,.91,2.66,2.7,2.67,3.54,0,7.07,0,10.61,0h.6c-.16-.18-.35-.24-.53-.31-2.35-.82-4.72-1.59-7.05-2.46-2.14-.8-2.79-1.83-2.79-4.09,0-15.92,0-31.84,0-47.76v-.93Zm29.52,57.3c-1.24,.74-2.57,.62-3.88,.62-8.46,0-16.92,0-25.38,0-1.27,0-2.55,.11-3.81-.67,0,.55,0,.96,0,1.36,0,2.01,.86,2.87,2.87,2.87,9.13,0,18.26,0,27.39,0,.23,0,.46,0,.69-.01,1.04-.09,1.97-.83,2.1-1.82,.1-.74,.02-1.51,.02-2.36ZM11.03,7.11c.44,.47,.8,.8,1.09,1.17,.7,.9,1.6,1.21,2.73,1.19,2.75-.05,5.5-.1,8.25,.01,1.86,.08,2.61-1.23,3.73-2.38H11.03Zm5.44-2.41c-2.31-.79-4.52-1.56-6.74-2.28-.65-.21-1.31,.27-1.41,.97-.06,.42-.01,.86-.01,1.31h8.17Z"/><path d="M22.62,15.34c-.26,.43-.38,.77-.61,1-3.08,3.1-6.16,6.18-9.26,9.26-.59,.59-1.27,.6-1.78,.08-.5-.52-.47-1.17,.13-1.78,3.06-3.08,6.14-6.14,9.21-9.21,.42-.42,.92-.64,1.43-.34,.35,.2,.57,.63,.87,.99Z"/><path d="M15.51,15.32c-.24,.41-.35,.74-.57,.98-.71,.76-1.45,1.48-2.19,2.2-.55,.53-1.25,.55-1.73,.08-.49-.49-.49-1.16,.05-1.72,.75-.78,1.48-1.59,2.32-2.27,.31-.25,.92-.33,1.31-.21,.32,.1,.53,.59,.82,.94Z"/></g></g></g></svg>